<svg data-name="Layer 1" xmlns="http://www.w3.org/2000/svg" viewBox="0 0 256 256" width="256" height="256"><path d="M101.313 256h150.198L226.316 4.956 225.832 0H29.829L4.49 256h10.861L39.619 11.011h176.419l23.465 233.809H113.546l10.527 -24.026c7.699 -0.621 14.301 -2.781 19.651 -6.446 6.387 -4.381 11.24 -10.331 14.406 -17.678 3.116 -7.19 4.695 -15.379 4.695 -24.352 0 -7.967 -1.11 -14.844 -3.291 -20.447a49.664 49.664 0 0 0 -2.724 -5.806l23.935 -54.642v-8.463h-23.739c-0.568 -7.935 -2.246 -14.701 -5.002 -20.147 -3.533 -6.981 -8.353 -12.206 -14.316 -15.51 -5.878 -3.272 -12.539 -4.931 -19.814 -4.931 -8.451 0 -15.68 1.985 -21.486 5.903 -5.786 3.892 -10.156 9.071 -12.977 15.393 -2.769 6.171 -4.173 13.061 -4.173 20.474 0 10.52 2.449 19.023 7.269 25.28 4.657 6.054 10.756 11.082 18.103 14.916 5.133 2.737 10.703 5.303 16.568 7.64 5.539 2.2 10.781 4.899 15.575 8.019 3.56 2.324 6.674 5.329 9.261 8.954 0.751 1.044 1.391 2.031 1.946 2.985 0.059 0.099 0.118 0.202 0.17 0.314l0.131 0.236c2.697 4.891 4.061 11.566 4.061 19.834 0 6.981 -1.196 13.446 -3.546 19.206 -2.273 5.551 -5.844 10.011 -10.638 13.27 -3.794 2.586 -8.646 4.166 -14.4 4.695 -1.267 0.118 -2.612 0.183 -3.945 0.202l-0.653 0.006c-8.6 0 -15.543 -2.011 -20.644 -5.969 -5.185 -4.029 -9.012 -9.45 -11.377 -16.105 -2.449 -6.89 -3.631 -14.505 -3.514 -22.629l0.046 -3.311H73.152l-0.046 3.219c-0.124 10.038 1.404 19.356 4.545 27.69 3.213 8.562 8.32 15.497 15.177 20.604 5.466 4.082 12.193 6.57 20.029 7.432l-11.546 26.377V256Zm48.352 -119.379c-3.37 -3.343 -7.124 -6.263 -11.194 -8.712 -5.499 -3.219 -11.311 -6.093 -17.293 -8.529 -5.655 -2.299 -11.023 -4.878 -15.954 -7.661 -4.579 -2.586 -8.366 -6.08 -11.252 -10.383 -2.808 -4.186 -4.232 -9.972 -4.232 -17.196 0 -5.421 0.954 -10.527 2.834 -15.177 1.821 -4.52 4.722 -8.131 8.861 -11.03 4.049 -2.84 9.581 -4.278 16.438 -4.278 5.473 0 10.476 1.124 14.857 3.337 4.265 2.149 7.569 5.669 10.097 10.762 1.946 3.939 3.174 9.038 3.663 15.204H114.83v11.044h53.505l-18.671 42.619Z" style="fill:#df8252"/></svg>