<svg id="Layer_1" data-name="Layer 1" xmlns="http://www.w3.org/2000/svg" viewBox="0 0 456 456" width="456" height="456"><defs><style>.cls-1 {
    fill: #df8252;
    }</style></defs><path class="cls-1" d="M180.464 456h267.54L403.125 8.828 402.263 0H53.133L7.998 456h19.346L70.571 19.613h314.246l41.797 416.472H202.254l18.751 -42.796c13.714 -1.106 25.474 -4.954 35.003 -11.482 11.377 -7.804 20.021 -18.402 25.661 -31.489 5.55 -12.807 8.363 -27.394 8.363 -43.377 0 -14.191 -1.977 -26.441 -5.862 -36.421a88.464 88.464 0 0 0 -4.852 -10.342l42.634 -97.331v-15.075h-42.285c-1.012 -14.134 -4.001 -26.186 -8.91 -35.887 -6.293 -12.435 -14.879 -21.742 -25.5 -27.627 -10.47 -5.828 -22.335 -8.783 -35.294 -8.783 -15.053 0 -27.93 3.536 -38.272 10.515 -10.306 6.933 -18.09 16.158 -23.115 27.419 -4.932 10.992 -7.433 23.265 -7.433 36.469 0 18.739 4.362 33.885 12.948 45.03 8.295 10.784 19.159 19.74 32.246 26.569 9.143 4.875 19.065 9.446 29.512 13.609 9.866 3.919 19.204 8.726 27.743 14.284 6.341 4.14 11.888 9.492 16.496 15.949 1.338 1.86 2.478 3.618 3.466 5.317 0.105 0.176 0.21 0.36 0.303 0.559l0.233 0.42c4.804 8.712 7.234 20.602 7.234 35.329 0 12.435 -2.13 23.951 -6.316 34.211 -4.049 9.888 -10.41 17.832 -18.949 23.637 -6.758 4.606 -15.401 7.421 -25.65 8.363 -2.257 0.21 -4.653 0.326 -7.027 0.36l-1.163 0.011c-15.319 0 -27.686 -3.582 -36.772 -10.632 -9.236 -7.177 -16.053 -16.833 -20.265 -28.687 -4.362 -12.273 -6.468 -25.837 -6.259 -40.308l0.082 -5.898H130.302l-0.082 5.734c-0.221 17.88 2.501 34.478 8.096 49.323 5.723 15.251 14.82 27.604 27.034 36.701 9.736 7.271 21.719 11.703 35.677 13.238l-20.566 46.984V456Zm86.127 -212.644c-6.003 -5.955 -12.69 -11.156 -19.939 -15.518 -9.795 -5.734 -20.148 -10.853 -30.803 -15.192 -10.073 -4.095 -19.635 -8.689 -28.418 -13.646 -8.156 -4.606 -14.902 -10.83 -20.043 -18.495 -5.002 -7.456 -7.538 -17.763 -7.538 -30.63 0 -9.656 1.699 -18.751 5.048 -27.034 3.244 -8.051 8.411 -14.483 15.784 -19.647 7.212 -5.059 17.066 -7.62 29.28 -7.62 9.749 0 18.66 2.002 26.464 5.944 7.597 3.828 13.482 10.098 17.985 19.17 3.466 7.016 5.654 16.099 6.525 27.082H204.541v19.672h95.306l-33.258 75.915Z"/></svg>
