<?xml version="1.0" encoding="UTF-8"?>
<svg id="Layer_1" data-name="Layer 1" xmlns="http://www.w3.org/2000/svg" viewBox="0 0 512 512">
  <defs>
    <style>
      .cls-1 {
        fill: #c06647;
      }
    </style>
  </defs>
  <g transform="scale(1.024) translate(0, 180)">
    <path class="cls-1" d="M189.38,531.03h293.78l-49.28-491.03-.95-9.7H49.56L0,531.03h21.24L68.71,51.84h345.07l45.9,457.32h-246.37l20.59-46.99c15.06-1.21,27.97-5.44,38.44-12.61,12.49-8.57,21.98-20.21,28.18-34.58,6.09-14.06,9.18-30.08,9.18-47.63,0-15.58-2.17-29.03-6.44-39.99-1.55-3.93-3.33-7.74-5.33-11.36l46.82-106.88v-16.55h-46.43c-1.11-15.52-4.39-28.75-9.78-39.41-6.91-13.66-16.34-23.87-28-30.34-11.5-6.4-24.53-9.64-38.76-9.64-16.53,0-30.67,3.88-42.03,11.55-11.32,7.61-19.86,17.74-25.38,30.11-5.42,12.07-8.16,25.55-8.16,40.05,0,20.58,4.79,37.21,14.22,49.45,9.11,11.84,21.04,21.68,35.41,29.18,10.04,5.35,20.94,10.37,32.41,14.95,10.83,4.3,21.09,9.58,30.47,15.69,6.96,4.55,13.05,10.42,18.11,17.51,1.47,2.04,2.72,3.97,3.81,5.84.11.19.23.4.33.61l.26.46c5.28,9.57,7.95,22.62,7.95,38.79,0,13.66-2.34,26.3-6.94,37.57-4.45,10.86-11.43,19.58-20.81,25.96-7.42,5.06-16.91,8.15-28.17,9.18-2.48.23-5.11.36-7.72.4h-1.28c-16.82.01-30.4-3.92-40.38-11.66-10.14-7.88-17.63-18.48-22.25-31.5-4.79-13.48-7.1-28.37-6.87-44.26l.09-6.48h-20.54l-.09,6.3c-.24,19.63,2.75,37.86,8.89,54.16,6.28,16.75,16.27,30.31,29.69,40.3,10.69,7.98,23.85,12.85,39.18,14.54l-22.58,51.59v17.59ZM283.96,297.53c-6.59-6.54-13.94-12.25-21.89-17.04-10.76-6.3-22.12-11.92-33.82-16.68-11.06-4.5-21.56-9.54-31.21-14.98-8.95-5.06-16.36-11.89-22.01-20.31-5.49-8.19-8.28-19.51-8.28-33.63,0-10.6,1.86-20.59,5.54-29.69,3.56-8.84,9.24-15.9,17.33-21.57,7.92-5.56,18.74-8.37,32.15-8.37,10.7,0,20.49,2.2,29.06,6.53,8.34,4.2,14.8,11.09,19.75,21.05,3.81,7.7,6.21,17.68,7.17,29.74h-61.93v21.6h104.65l-36.52,83.36Z"/>
  </g>
</svg>