<?xml version="1.0" encoding="UTF-8"?>
<svg id="Layer_1" data-name="Layer 1" xmlns="http://www.w3.org/2000/svg" viewBox="0 0 2000 558.72">
  <defs>
    <style>
      .cls-1 {
        fill: #332a27;
      }
    </style>
  </defs>
  <path class="cls-1" d="M189.38,529.72h293.78l-49.28-491.03-.95-9.7H49.56L0,529.72h21.24L68.71,50.53h345.07l45.9,457.32h-246.37l20.59-46.99c15.06-1.21,27.97-5.44,38.44-12.61,12.49-8.57,21.98-20.21,28.18-34.58,6.09-14.06,9.18-30.08,9.18-47.63,0-15.58-2.17-29.03-6.44-39.99-1.55-3.93-3.33-7.74-5.33-11.36l46.82-106.88v-16.55h-46.43c-1.11-15.52-4.39-28.75-9.78-39.41-6.91-13.66-16.34-23.87-28-30.34-11.5-6.4-24.53-9.64-38.76-9.64-16.53,0-30.67,3.88-42.03,11.55-11.32,7.61-19.86,17.74-25.38,30.11-5.42,12.07-8.16,25.55-8.16,40.05,0,20.58,4.79,37.21,14.22,49.45,9.11,11.84,21.04,21.68,35.41,29.18,10.04,5.35,20.94,10.37,32.41,14.95,10.83,4.3,21.09,9.58,30.47,15.69,6.96,4.55,13.05,10.42,18.11,17.51,1.47,2.04,2.72,3.97,3.81,5.84.11.19.23.4.33.61l.26.46c5.28,9.57,7.95,22.62,7.95,38.79,0,13.66-2.34,26.3-6.94,37.57-4.45,10.86-11.43,19.58-20.81,25.96-7.42,5.06-16.91,8.15-28.17,9.18-2.48.23-5.11.36-7.72.4h-1.28c-16.82.01-30.4-3.92-40.38-11.66-10.14-7.88-17.63-18.48-22.25-31.5-4.79-13.48-7.1-28.37-6.87-44.26l.09-6.48h-20.54l-.09,6.3c-.24,19.63,2.75,37.86,8.89,54.16,6.28,16.75,16.27,30.31,29.69,40.3,10.69,7.98,23.85,12.85,39.18,14.54l-22.58,51.59v17.59ZM283.96,296.22c-6.59-6.54-13.94-12.25-21.89-17.04-10.76-6.3-22.12-11.92-33.82-16.68-11.06-4.5-21.56-9.54-31.21-14.98-8.95-5.06-16.36-11.89-22.01-20.31-5.49-8.19-8.28-19.51-8.28-33.63,0-10.6,1.86-20.59,5.54-29.69,3.56-8.84,9.24-15.9,17.33-21.57,7.92-5.56,18.74-8.37,32.15-8.37,10.7,0,20.49,2.2,29.06,6.53,8.34,4.2,14.8,11.09,19.75,21.05,3.81,7.7,6.21,17.68,7.17,29.74h-61.93v21.6h104.65l-36.52,83.36Z"/>
  <g>
    <path class="cls-1" d="M645.46,499.6c-16.47,0-30.74-5.1-42.82-15.28-12.08-10.18-21.33-24.46-27.75-42.83-6.41-18.36-9.62-39.37-9.62-63.02h23.42c0,16.01,2.13,30.74,6.41,44.2,4.28,13.46,10.59,24.28,18.92,32.46,8.34,8.18,18.81,12.28,31.43,12.28,11.12,0,20.47-3.18,28.07-9.55,7.59-6.36,13.42-14.82,17.48-25.37,4.06-10.55,6.09-22.55,6.09-36.01,0-16-1.98-28.92-5.93-38.74-3.96-9.82-9.36-17.82-16.2-24.01-6.85-6.18-14.59-11.54-23.25-16.1-8.66-4.54-17.8-9.55-27.42-15-17.32-10.18-30.05-22.73-38.17-37.65-8.13-14.91-12.3-34.01-12.51-57.29,0-20,2.73-37.73,8.18-53.2,5.45-15.46,13.42-27.64,23.9-36.56,10.47-8.91,22.88-13.37,37.21-13.37s26.03,4.46,36.41,13.37c10.37,8.92,18.44,21.28,24.22,37.1,5.77,15.82,8.66,33.92,8.66,54.29h-23.09c0-11.64-1.76-23-5.29-34.1-3.53-11.09-8.77-20.19-15.72-27.28-6.95-7.09-15.77-10.64-26.46-10.64-8.77,0-16.52,2.64-23.25,7.91-6.74,5.28-12.03,12.92-15.88,22.92-3.85,10.01-5.77,21.74-5.77,35.19s1.71,23.83,5.13,32.19c3.42,8.37,8.23,15.28,14.43,20.73,6.2,5.46,13.47,10.46,21.81,15,8.34,4.55,17.64,9.74,27.91,15.55,10.47,6.19,19.78,13.64,27.91,22.37,8.12,8.73,14.54,19.92,19.25,33.56,4.7,13.64,7.06,30.83,7.06,51.56,0,17.83-2.73,34.74-8.18,50.74-5.45,16.01-13.74,29.11-24.86,39.28-11.12,10.18-25.02,15.28-41.7,15.28Z"/>
    <path class="cls-1" d="M803.59,493.05l82.75-381.94h23.09l82.75,381.94h-23.74l-70.57-331.74-70.57,331.74h-23.74Z"/>
    <path class="cls-1" d="M1085.53,493.05V111.11h22.45l124.13,318.1V111.11h22.45v381.94h-22.45l-124.13-318.64v318.64h-22.45Z"/>
    <polygon class="cls-1" points="1511.49 111.11 1439.65 344.09 1439.65 493.04 1417.19 493.04 1417.19 344.09 1344.7 111.11 1370.03 111.11 1428.41 308.66 1486.48 111.11 1511.49 111.11"/>
    <path class="cls-1" d="M1730.97,412.55c3.4-7.75,6.8-16.02,10.19-24.81,5.34-13.81,10.91-29.28,16.67-46.37l15.09-45.83h-24.07l-10.9,31.64c-4.93,14.55-9.68,27.83-14.28,39.83-2.63,6.86-5.2,13.35-7.73,19.51l-71.98-124.81c-7.7-14.18-13.53-27.09-17.47-38.74-3.96-11.64-5.94-23.63-5.94-36.01,0-14.54,2.99-26.63,8.98-36.28,5.99-9.63,14.32-14.46,25.02-14.46,8.76,0,16.47,4.55,23.09,13.64,6.62,9.09,9.94,22.37,9.94,39.83h22.46c.2-17.09-1.98-32.01-6.58-44.75-4.6-12.72-11.11-22.63-19.57-29.74-8.44-7.09-18.23-10.64-29.34-10.64s-21.55,3.55-29.99,10.64c-8.46,7.1-14.92,16.91-19.4,29.47-4.5,12.54-6.74,26.82-6.74,42.83,0,17.1,2.15,32.47,6.43,46.1,3.23,10.33,8.01,21.65,14.31,33.95-9.61,6.63-17.97,14.77-25.06,24.44-8.66,11.83-15.18,25.37-19.56,40.65-4.39,15.28-6.58,32.38-6.58,51.29,0,23.29,3.09,43.57,9.3,60.84,6.2,17.28,14.97,30.75,26.3,40.38,11.33,9.63,24.38,14.46,39.14,14.46,16.47,0,31.15-5.74,44.09-17.19,10.42-9.22,20.74-23.36,30.96-42.4l30.46,53.04h29.19l-46.43-80.5ZM1678.45,451.03c-10.39,10.19-22.09,15.28-35.13,15.28-10.49,0-19.67-3.63-27.59-10.91-7.91-7.27-14.1-17.18-18.6-29.74-4.5-12.54-6.73-26.82-6.73-42.83,0-21.46,3.73-39.83,11.23-55.11,7.03-14.37,17.46-26.15,31.31-35.37l70.23,122.27c-8.41,16.32-16.64,28.47-24.72,36.4Z"/>
    <path class="cls-1" d="M1857.58,493.05v-30.56l114.51-317.55h-112.59v-33.83h138.89v30.56l-114.51,317.55h116.11v33.83h-142.42Z"/>
  </g>
</svg>