<?xml version="1.0" encoding="UTF-8"?>
<svg id="Layer_1" data-name="Layer 1" xmlns="http://www.w3.org/2000/svg" viewBox="0 0 2000 1468.8">
  <defs>
    <style>
      .cls-1 {
        fill: #332a27;
      }
    </style>
  </defs>
  <path class="cls-1" d="M923.91,753.99h428.21l-71.83-715.73-1.38-14.13h-558.81l-72.24,729.86h30.96L748.02,55.52h502.97l66.9,666.59h-359.1l30.01-68.5c21.95-1.77,40.78-7.93,56.02-18.38,18.21-12.49,32.04-29.46,41.07-50.4,8.88-20.5,13.39-43.85,13.39-69.43,0-22.72-3.17-42.32-9.38-58.3-2.25-5.73-4.86-11.28-7.76-16.55l68.24-155.78v-24.13h-67.68c-1.62-22.62-6.4-41.91-14.26-57.44-10.07-19.9-23.81-34.8-40.81-44.22-16.76-9.33-35.75-14.06-56.49-14.06-24.09,0-44.7,5.66-61.26,16.83-16.5,11.1-28.95,25.86-37,43.88-7.89,17.59-11.9,37.24-11.9,58.37,0,30,6.98,54.24,20.72,72.07,13.28,17.26,30.67,31.6,51.61,42.53,14.63,7.8,30.52,15.12,47.24,21.78,15.79,6.27,30.74,13.96,44.41,22.86,10.15,6.63,19.03,15.19,26.4,25.53,2.14,2.98,3.97,5.79,5.55,8.51.17.28.34.58.48.89l.37.67c7.69,13.95,11.58,32.97,11.58,56.55,0,19.9-3.41,38.34-10.11,54.76-6.48,15.83-16.66,28.54-30.33,37.83-10.82,7.37-24.65,11.88-41.05,13.39-3.61.34-7.45.52-11.25.58l-1.86.02c-24.52,0-44.31-5.73-58.85-17.02-14.78-11.49-25.69-26.94-32.43-45.91-6.98-19.64-10.35-41.35-10.02-64.51l.13-9.44h-29.94l-.13,9.18c-.35,28.62,4,55.19,12.96,78.94,9.16,24.41,23.72,44.18,43.27,58.74,15.58,11.64,34.76,18.73,57.1,21.19l-32.92,75.2v25.64ZM1061.77,413.64c-9.61-9.53-20.31-17.86-31.91-24.84-15.68-9.18-32.25-17.37-49.3-24.32-16.12-6.55-31.43-13.91-45.49-21.84-13.05-7.37-23.85-17.33-32.08-29.6-8.01-11.93-12.07-28.43-12.07-49.02,0-15.45,2.72-30.01,8.08-43.27,5.19-12.88,13.46-23.18,25.27-31.45,11.54-8.1,27.31-12.2,46.86-12.2,15.6,0,29.86,3.2,42.36,9.51,12.16,6.13,21.58,16.16,28.78,30.68,5.55,11.23,9.05,25.77,10.45,43.34h-90.26v31.48h152.54l-53.23,121.51Z"/>
  <g>
    <path class="cls-1" d="M111.78,1444.67c-22.96,0-42.86-7.11-59.69-21.3-16.84-14.19-29.73-34.1-38.68-59.71-8.94-25.6-13.41-54.88-13.41-87.85h32.64c0,22.32,2.98,42.86,8.94,61.61,5.96,18.77,14.76,33.85,26.38,45.25,11.63,11.41,26.23,17.11,43.82,17.11,15.5,0,28.54-4.43,39.12-13.31,10.58-8.86,18.7-20.65,24.37-35.37,5.66-14.7,8.5-31.43,8.5-50.2,0-22.31-2.76-40.31-8.27-54-5.52-13.69-13.04-24.84-22.58-33.47-9.54-8.62-20.34-16.09-32.42-22.44-12.07-6.33-24.82-13.31-38.23-20.92-24.15-14.19-41.88-31.68-53.21-52.48-11.33-20.79-17.14-47.41-17.44-79.86,0-27.88,3.8-52.6,11.4-74.16,7.6-21.55,18.7-38.53,33.31-50.96,14.6-12.42,31.89-18.63,51.87-18.63s36.29,6.22,50.75,18.63c14.45,12.43,25.71,29.66,33.76,51.72,8.05,22.06,12.07,47.29,12.07,75.68h-32.19c0-16.22-2.46-32.06-7.38-47.54-4.92-15.46-12.23-28.14-21.91-38.03-9.69-9.89-21.99-14.83-36.89-14.83-12.23,0-23.03,3.68-32.42,11.03-9.39,7.36-16.77,18-22.13,31.95-5.37,13.95-8.05,30.3-8.05,49.06s2.38,33.22,7.15,44.88c4.76,11.67,11.47,21.3,20.12,28.9,8.64,7.61,18.78,14.58,30.4,20.92,11.63,6.35,24.59,13.57,38.9,21.68,14.6,8.63,27.57,19.01,38.9,31.18,11.33,12.17,20.27,27.76,26.83,46.78,6.55,19.01,9.84,42.97,9.84,71.88,0,24.85-3.8,48.43-11.4,70.74-7.6,22.32-19.16,40.57-34.65,54.76-15.5,14.19-34.88,21.3-58.13,21.3Z"/>
    <path class="cls-1" d="M332.21,1435.54l115.36-532.42h32.19l115.36,532.42h-33.09l-98.37-462.44-98.37,462.44h-33.09Z"/>
    <path class="cls-1" d="M725.24,1435.54v-532.42h31.3l173.04,443.43v-443.43h31.3v532.42h-31.3l-173.04-444.19v444.19h-31.3Z"/>
    <polygon class="cls-1" points="1319.02 903.12 1218.88 1227.89 1218.88 1435.53 1187.57 1435.53 1187.57 1227.89 1086.52 903.12 1121.83 903.12 1203.21 1178.5 1284.15 903.12 1319.02 903.12"/>
    <path class="cls-1" d="M1624.97,1323.32c4.74-10.81,9.47-22.33,14.21-34.58,7.44-19.25,15.21-40.81,23.24-64.64l21.03-63.89h-33.55l-15.19,44.11c-6.87,20.28-13.5,38.8-19.91,55.52-3.67,9.56-7.25,18.61-10.77,27.19l-100.34-173.99c-10.74-19.77-18.86-37.77-24.36-54.01-5.52-16.22-8.28-32.94-8.28-50.2,0-20.26,4.17-37.13,12.52-50.57,8.35-13.43,19.96-20.16,34.88-20.16,12.21,0,22.95,6.34,32.19,19.02,9.22,12.68,13.85,31.18,13.85,55.52h31.3c.28-23.82-2.76-44.62-9.17-62.38-6.41-17.74-15.49-31.55-27.28-41.45-11.77-9.88-25.41-14.83-40.9-14.83s-30.04,4.95-41.81,14.83c-11.79,9.9-20.8,23.58-27.05,41.08-6.27,17.49-9.4,37.39-9.4,59.7,0,23.84,2.99,45.26,8.96,64.26,4.51,14.41,11.16,30.18,19.94,47.33-13.39,9.24-25.05,20.58-34.94,34.06-12.07,16.49-21.15,35.36-27.26,56.66-6.13,21.3-9.17,45.14-9.17,71.49,0,32.46,4.31,60.74,12.96,84.81,8.64,24.09,20.87,42.86,36.66,56.29,15.79,13.43,33.99,20.16,54.56,20.16,22.95,0,43.43-8,61.47-23.97,14.53-12.86,28.92-32.57,43.16-59.1l42.47,73.93h40.69l-64.73-112.22ZM1551.77,1376.97c-14.48,14.21-30.79,21.3-48.97,21.3-14.62,0-27.42-5.06-38.46-15.21-11.02-10.13-19.66-23.95-25.93-41.45-6.27-17.49-9.38-37.39-9.38-59.7,0-29.91,5.2-55.52,15.65-76.82,9.79-20.03,24.34-36.45,43.64-49.31l97.9,170.44c-11.72,22.76-23.2,39.69-34.46,50.75Z"/>
    <path class="cls-1" d="M1801.47,1435.54v-42.59l159.63-442.67h-156.94v-47.16h193.61v42.59l-159.63,442.67h161.86v47.16h-198.53Z"/>
  </g>
</svg>