<?xml version="1.0" encoding="UTF-8"?>
<svg id="Layer_1" data-name="Layer 1" xmlns="http://www.w3.org/2000/svg" viewBox="0 0 2000 2000">
  <path d="M791.51,2000h1173.42L1768.09,38.72l-3.78-38.72H233.04L35.08,2000h84.85L309.52,86.02h1378.27l183.32,1826.63h-984.03l82.24-187.7c60.15-4.85,111.73-21.73,153.52-50.36,49.9-34.23,87.81-80.71,112.55-138.11,24.34-56.17,36.68-120.15,36.68-190.25,0-62.24-8.67-115.97-25.71-159.74-6.17-15.71-13.32-30.92-21.28-45.36l186.99-426.89v-66.12h-185.46c-4.44-61.99-17.55-114.85-39.08-157.4-27.6-54.54-65.26-95.36-111.84-121.17-45.92-25.56-97.96-38.52-154.8-38.52-66.02,0-122.5,15.51-167.86,46.12-45.2,30.41-79.34,70.87-101.38,120.26-21.63,48.21-32.6,102.04-32.6,159.95,0,82.19,19.13,148.62,56.79,197.5,36.38,47.3,84.03,86.58,141.43,116.53,40.1,21.38,83.62,41.43,129.44,59.69,43.27,17.19,84.23,38.27,121.68,62.65,27.81,18.16,52.14,41.63,72.35,69.95,5.87,8.16,10.87,15.87,15.2,23.32.46.77.92,1.58,1.33,2.45l1.02,1.84c21.07,38.21,31.73,90.36,31.73,154.95,0,54.54-9.34,105.05-27.7,150.05-17.76,43.37-45.66,78.21-83.11,103.67-29.64,20.2-67.55,32.55-112.5,36.68-9.9.92-20.41,1.43-30.82,1.58l-5.1.05c-67.19,0-121.43-15.71-161.28-46.63-40.51-31.48-70.41-73.83-88.88-125.82-19.13-53.83-28.37-113.32-27.45-176.79l.36-25.87h-82.04l-.36,25.15c-.97,78.42,10.97,151.22,35.51,216.33,25.1,66.89,65,121.07,118.57,160.97,42.7,31.89,95.26,51.33,156.48,58.06l-90.2,206.07v70.26ZM1169.26,1067.35c-26.33-26.12-55.66-48.93-87.45-68.06-42.96-25.15-88.37-47.6-135.1-66.63-44.18-17.96-86.12-38.11-124.64-59.85-35.77-20.2-65.36-47.5-87.91-81.12-21.94-32.7-33.06-77.91-33.06-134.34,0-42.35,7.45-82.24,22.14-118.57,14.23-35.31,36.89-63.52,69.23-86.17,31.63-22.19,74.85-33.42,128.42-33.42,42.76,0,81.84,8.78,116.07,26.07,33.32,16.79,59.13,44.29,78.88,84.08,15.2,30.77,24.8,70.61,28.62,118.78h-247.35v86.28h418.01l-145.87,332.96Z"/>
</svg>